<svg width="38" height="38" viewBox="0 0 38 38" fill="none" xmlns="http://www.w3.org/2000/svg">
<path d="M30.4688 11.4258H25.4883V10.8398C25.4883 7.11914 22.4707 4.10156 18.75 4.10156C15.0293 4.10156 12.0117 7.11914 12.0117 10.8398V11.4258H7.03125C6.38306 11.4258 5.85938 11.9495 5.85938 12.5977V32.2266C5.85938 32.8748 6.38306 33.3984 7.03125 33.3984H30.4688C31.1169 33.3984 31.6406 32.8748 31.6406 32.2266V12.5977C31.6406 11.9495 31.1169 11.4258 30.4688 11.4258ZM14.6484 10.8398C14.6484 8.573 16.4832 6.73828 18.75 6.73828C21.0168 6.73828 22.8516 8.573 22.8516 10.8398V11.4258H14.6484V10.8398ZM29.0039 30.7617H8.49609V14.0625H12.0117V17.2852C12.0117 17.4463 12.1436 17.5781 12.3047 17.5781H14.3555C14.5166 17.5781 14.6484 17.4463 14.6484 17.2852V14.0625H22.8516V17.2852C22.8516 17.4463 22.9834 17.5781 23.1445 17.5781H25.1953C25.3564 17.5781 25.4883 17.4463 25.4883 17.2852V14.0625H29.0039V30.7617Z" fill="black"/>
<circle cx="19" cy="24" r="3" fill="black"/>
</svg>
